<svg width="688" height="1000" viewBox="0 0 688 1000" fill="none" xmlns="http://www.w3.org/2000/svg">
<path d="M201.518 961.105H208.98V968.362H201.518V961.105Z" fill="#0159C1" fill-opacity="0.11"/>
<path d="M164.463 961.105H171.926V968.362H164.463V961.105Z" fill="#0159C1" fill-opacity="0.11"/>
<path d="M152.116 961.105H159.578V968.362H152.116V961.105Z" fill="#0159C1" fill-opacity="0.11"/>
<path d="M90.3658 961.105H97.8281V968.362H90.3658V961.105Z" fill="#0159C1" fill-opacity="0.11"/>
<path d="M53.3151 961.105H60.7773V968.362H53.3151V961.105Z" fill="#0159C1" fill-opacity="0.11"/>
<path d="M40.9625 961.105H48.4258V968.362H40.9625V961.105Z" fill="#0159C1" fill-opacity="0.11"/>
<path d="M16.2643 961.105H23.7266V968.362H16.2643V961.105Z" fill="#0159C1" fill-opacity="0.11"/>
<path d="M3.91171 961.105H11.375V968.362H3.91171V961.105Z" fill="#0159C1" fill-opacity="0.11"/>
<path d="M90.3658 949.092H97.8281V956.349H90.3658V949.092Z" fill="#0159C1" fill-opacity="0.11"/>
<path d="M78.0143 949.092H85.4766V956.349H78.0143V949.092Z" fill="#0159C1" fill-opacity="0.11"/>
<path d="M65.6628 949.092H73.125V956.349H65.6628V949.092Z" fill="#0159C1" fill-opacity="0.11"/>
<path d="M40.9625 937.078H48.4258V944.334H40.9625V937.078Z" fill="#0159C1" fill-opacity="0.11"/>
<path d="M28.612 937.078H36.0742V944.334H28.612V937.078Z" fill="#0159C1" fill-opacity="0.11"/>
<path d="M3.91171 937.078H11.375V944.334H3.91171V937.078Z" fill="#0159C1" fill-opacity="0.11"/>
<path d="M189.167 901.037H196.629V908.293H189.167V901.037Z" fill="#0159C1" fill-opacity="0.11"/>
<path d="M152.116 901.037H159.578V908.293H152.116V901.037Z" fill="#0159C1" fill-opacity="0.11"/>
<path d="M90.3658 901.037H97.8281V908.293H90.3658V901.037Z" fill="#0159C1" fill-opacity="0.11"/>
<path d="M53.3151 901.037H60.7773V908.293H53.3151V901.037Z" fill="#0159C1" fill-opacity="0.11"/>
<path d="M40.9625 901.037H48.4258V908.293H40.9625V901.037Z" fill="#0159C1" fill-opacity="0.11"/>
<path d="M115.065 889.023H122.527V896.279H115.065V889.023Z" fill="#0159C1" fill-opacity="0.11"/>
<path d="M102.714 889.023H110.176V896.279H102.714V889.023Z" fill="#0159C1" fill-opacity="0.11"/>
<path d="M90.3658 889.023H97.8281V896.279H90.3658V889.023Z" fill="#0159C1" fill-opacity="0.11"/>
<path d="M65.6628 889.023H73.125V896.279H65.6628V889.023Z" fill="#0159C1" fill-opacity="0.11"/>
<path d="M40.9625 889.023H48.4258V896.279H40.9625V889.023Z" fill="#0159C1" fill-opacity="0.11"/>
<path d="M28.612 889.023H36.0742V896.279H28.612V889.023Z" fill="#0159C1" fill-opacity="0.11"/>
<path d="M3.91171 889.023H11.375V896.279H3.91171V889.023Z" fill="#0159C1" fill-opacity="0.11"/>
<path d="M201.518 877.01H208.98V884.267H201.518V877.01Z" fill="#0159C1" fill-opacity="0.11"/>
<path d="M164.463 852.982H171.926V860.238H164.463V852.982Z" fill="#0159C1" fill-opacity="0.11"/>
<path d="M139.764 852.982H147.227V860.238H139.764V852.982Z" fill="#0159C1" fill-opacity="0.11"/>
<path d="M127.417 852.982H134.879V860.238H127.417V852.982Z" fill="#0159C1" fill-opacity="0.11"/>
<path d="M115.065 852.982H122.527V860.238H115.065V852.982Z" fill="#0159C1" fill-opacity="0.11"/>
<path d="M90.3658 852.982H97.8281V860.238H90.3658V852.982Z" fill="#0159C1" fill-opacity="0.11"/>
<path d="M53.3151 852.982H60.7773V860.238H53.3151V852.982Z" fill="#0159C1" fill-opacity="0.11"/>
<path d="M40.9625 852.982H48.4258V860.238H40.9625V852.982Z" fill="#0159C1" fill-opacity="0.11"/>
<path d="M28.612 852.982H36.0742V860.238H28.612V852.982Z" fill="#0159C1" fill-opacity="0.11"/>
<path d="M3.91171 852.982H11.375V860.238H3.91171V852.982Z" fill="#0159C1" fill-opacity="0.11"/>
<path d="M78.0143 840.969H85.4766V848.226H78.0143V840.969Z" fill="#0159C1" fill-opacity="0.11"/>
<path d="M65.6628 840.969H73.125V848.226H65.6628V840.969Z" fill="#0159C1" fill-opacity="0.11"/>
<path d="M3.91171 816.939H11.375V824.196H3.91171V816.939Z" fill="#0159C1" fill-opacity="0.11"/>
<path d="M176.815 780.898H184.277V788.155H176.815V780.898Z" fill="#0159C1" fill-opacity="0.11"/>
<path d="M164.463 780.898H171.926V788.155H164.463V780.898Z" fill="#0159C1" fill-opacity="0.11"/>
<path d="M115.065 696.803H122.527V704.06H115.065V696.803Z" fill="#0159C1" fill-opacity="0.11"/>
<path d="M90.3658 696.803H97.8281V704.06H90.3658V696.803Z" fill="#0159C1" fill-opacity="0.11"/>
<path d="M78.0143 696.803H85.4766V704.06H78.0143V696.803Z" fill="#0159C1" fill-opacity="0.11"/>
<path d="M40.9625 696.803H48.4258V704.06H40.9625V696.803Z" fill="#0159C1" fill-opacity="0.11"/>
<path d="M16.2643 696.803H23.7266V704.06H16.2643V696.803Z" fill="#0159C1" fill-opacity="0.11"/>
<path d="M3.91171 696.803H11.375V704.06H3.91171V696.803Z" fill="#0159C1" fill-opacity="0.11"/>
<path d="M102.714 672.775H110.176V680.031H102.714V672.775Z" fill="#0159C1" fill-opacity="0.11"/>
<path d="M90.3658 672.775H97.8281V680.031H90.3658V672.775Z" fill="#0159C1" fill-opacity="0.11"/>
<path d="M78.0143 672.775H85.4766V680.031H78.0143V672.775Z" fill="#0159C1" fill-opacity="0.11"/>
<path d="M65.6628 672.775H73.125V680.031H65.6628V672.775Z" fill="#0159C1" fill-opacity="0.11"/>
<path d="M53.3151 672.775H60.7773V680.031H53.3151V672.775Z" fill="#0159C1" fill-opacity="0.11"/>
<path d="M40.9625 672.775H48.4258V680.031H40.9625V672.775Z" fill="#0159C1" fill-opacity="0.11"/>
<path d="M28.612 672.775H36.0742V680.031H28.612V672.775Z" fill="#0159C1" fill-opacity="0.11"/>
<path d="M16.2643 672.775H23.7266V680.031H16.2643V672.775Z" fill="#0159C1" fill-opacity="0.11"/>
<path d="M16.2643 660.762H23.7266V668.019H16.2643V660.762Z" fill="#0159C1" fill-opacity="0.11"/>
<path d="M3.91171 660.762H11.375V668.019H3.91171V660.762Z" fill="#0159C1" fill-opacity="0.11"/>
<path d="M201.518 648.746H208.98V656.002H201.518V648.746Z" fill="#0159C1" fill-opacity="0.11"/>
<path d="M176.815 648.746H184.277V656.002H176.815V648.746Z" fill="#0159C1" fill-opacity="0.11"/>
<path d="M164.463 648.746H171.926V656.002H164.463V648.746Z" fill="#0159C1" fill-opacity="0.11"/>
<path d="M127.417 648.746H134.879V656.002H127.417V648.746Z" fill="#0159C1" fill-opacity="0.11"/>
<path d="M102.714 648.746H110.176V656.002H102.714V648.746Z" fill="#0159C1" fill-opacity="0.11"/>
<path d="M90.3658 648.746H97.8281V656.002H90.3658V648.746Z" fill="#0159C1" fill-opacity="0.11"/>
<path d="M65.6628 648.746H73.125V656.002H65.6628V648.746Z" fill="#0159C1" fill-opacity="0.11"/>
<path d="M53.3151 648.746H60.7773V656.002H53.3151V648.746Z" fill="#0159C1" fill-opacity="0.11"/>
<path d="M40.9625 648.746H48.4258V656.002H40.9625V648.746Z" fill="#0159C1" fill-opacity="0.11"/>
<path d="M3.91171 648.746H11.375V656.002H3.91171V648.746Z" fill="#0159C1" fill-opacity="0.11"/>
<path d="M3.91171 636.732H11.375V643.988H3.91171V636.732Z" fill="#0159C1" fill-opacity="0.11"/>
<path d="M201.518 612.705H208.98V619.961H201.518V612.705Z" fill="#0159C1" fill-opacity="0.11"/>
<path d="M189.167 612.705H196.629V619.961H189.167V612.705Z" fill="#0159C1" fill-opacity="0.11"/>
<path d="M164.463 612.705H171.926V619.961H164.463V612.705Z" fill="#0159C1" fill-opacity="0.11"/>
<path d="M152.116 612.705H159.578V619.961H152.116V612.705Z" fill="#0159C1" fill-opacity="0.11"/>
<path d="M139.764 612.705H147.227V619.961H139.764V612.705Z" fill="#0159C1" fill-opacity="0.11"/>
<path d="M115.065 612.705H122.527V619.961H115.065V612.705Z" fill="#0159C1" fill-opacity="0.11"/>
<path d="M90.3658 612.705H97.8281V619.961H90.3658V612.705Z" fill="#0159C1" fill-opacity="0.11"/>
<path d="M78.0143 612.705H85.4766V619.961H78.0143V612.705Z" fill="#0159C1" fill-opacity="0.11"/>
<path d="M65.6628 612.705H73.125V619.961H65.6628V612.705Z" fill="#0159C1" fill-opacity="0.11"/>
<path d="M53.3151 612.705H60.7773V619.961H53.3151V612.705Z" fill="#0159C1" fill-opacity="0.11"/>
<path d="M40.9625 612.705H48.4258V619.961H40.9625V612.705Z" fill="#0159C1" fill-opacity="0.11"/>
<path d="M16.2643 612.705H23.7266V619.961H16.2643V612.705Z" fill="#0159C1" fill-opacity="0.11"/>
<path d="M176.815 600.691H184.277V607.947H176.815V600.691Z" fill="#0159C1" fill-opacity="0.11"/>
<path d="M139.764 600.691H147.227V607.947H139.764V600.691Z" fill="#0159C1" fill-opacity="0.11"/>
<path d="M115.065 600.691H122.527V607.947H115.065V600.691Z" fill="#0159C1" fill-opacity="0.11"/>
<path d="M90.3658 600.691H97.8281V607.947H90.3658V600.691Z" fill="#0159C1" fill-opacity="0.11"/>
<path d="M65.6628 600.691H73.125V607.947H65.6628V600.691Z" fill="#0159C1" fill-opacity="0.11"/>
<path d="M53.3151 600.691H60.7773V607.947H53.3151V600.691Z" fill="#0159C1" fill-opacity="0.11"/>
<path d="M40.9625 600.691H48.4258V607.947H40.9625V600.691Z" fill="#0159C1" fill-opacity="0.11"/>
<path d="M28.612 600.691H36.0742V607.947H28.612V600.691Z" fill="#0159C1" fill-opacity="0.11"/>
<path d="M16.2643 600.691H23.7266V607.947H16.2643V600.691Z" fill="#0159C1" fill-opacity="0.11"/>
<path d="M3.91171 600.691H11.375V607.947H3.91171V600.691Z" fill="#0159C1" fill-opacity="0.11"/>
<path d="M16.2643 576.664H23.7266V583.92H16.2643V576.664Z" fill="#0159C1" fill-opacity="0.11"/>
<path d="M3.91171 576.664H11.375V583.92H3.91171V576.664Z" fill="#0159C1" fill-opacity="0.11"/>
<path d="M115.065 564.65H122.527V571.907H115.065V564.65Z" fill="#0159C1" fill-opacity="0.11"/>
<path d="M90.3658 564.65H97.8281V571.907H90.3658V564.65Z" fill="#0159C1" fill-opacity="0.11"/>
<path d="M53.3151 564.65H60.7773V571.907H53.3151V564.65Z" fill="#0159C1" fill-opacity="0.11"/>
<path d="M40.9625 564.65H48.4258V571.907H40.9625V564.65Z" fill="#0159C1" fill-opacity="0.11"/>
<path d="M3.91171 564.65H11.375V571.907H3.91171V564.65Z" fill="#0159C1" fill-opacity="0.11"/>
<path d="M78.0143 540.623H85.4766V547.879H78.0143V540.623Z" fill="#0159C1" fill-opacity="0.11"/>
<path d="M53.3151 540.623H60.7773V547.879H53.3151V540.623Z" fill="#0159C1" fill-opacity="0.11"/>
<path d="M139.764 516.596H147.227V523.853H139.764V516.596Z" fill="#0159C1" fill-opacity="0.11"/>
<path d="M127.417 516.596H134.879V523.853H127.417V516.596Z" fill="#0159C1" fill-opacity="0.11"/>
<path d="M115.065 516.596H122.527V523.853H115.065V516.596Z" fill="#0159C1" fill-opacity="0.11"/>
<path d="M102.714 516.596H110.176V523.853H102.714V516.596Z" fill="#0159C1" fill-opacity="0.11"/>
<path d="M90.3658 516.596H97.8281V523.853H90.3658V516.596Z" fill="#0159C1" fill-opacity="0.11"/>
<path d="M78.0143 516.596H85.4766V523.853H78.0143V516.596Z" fill="#0159C1" fill-opacity="0.11"/>
<path d="M65.6628 516.596H73.125V523.853H65.6628V516.596Z" fill="#0159C1" fill-opacity="0.11"/>
<path d="M53.3151 516.596H60.7773V523.853H53.3151V516.596Z" fill="#0159C1" fill-opacity="0.11"/>
<path d="M40.9625 516.596H48.4258V523.853H40.9625V516.596Z" fill="#0159C1" fill-opacity="0.11"/>
<path d="M28.612 516.596H36.0742V523.853H28.612V516.596Z" fill="#0159C1" fill-opacity="0.11"/>
<path d="M127.417 504.58H134.879V511.836H127.417V504.58Z" fill="#0159C1" fill-opacity="0.11"/>
<path d="M90.3658 504.58H97.8281V511.836H90.3658V504.58Z" fill="#0159C1" fill-opacity="0.11"/>
<path d="M53.3151 504.58H60.7773V511.836H53.3151V504.58Z" fill="#0159C1" fill-opacity="0.11"/>
<path d="M28.612 504.58H36.0742V511.836H28.612V504.58Z" fill="#0159C1" fill-opacity="0.11"/>
<path d="M16.2643 504.58H23.7266V511.836H16.2643V504.58Z" fill="#0159C1" fill-opacity="0.11"/>
<path d="M3.91171 504.58H11.375V511.836H3.91171V504.58Z" fill="#0159C1" fill-opacity="0.11"/>
<path d="M189.167 468.539H196.629V475.795H189.167V468.539Z" fill="#0159C1" fill-opacity="0.11"/>
<path d="M164.463 468.539H171.926V475.795H164.463V468.539Z" fill="#0159C1" fill-opacity="0.11"/>
<path d="M139.764 468.539H147.227V475.795H139.764V468.539Z" fill="#0159C1" fill-opacity="0.11"/>
<path d="M127.417 468.539H134.879V475.795H127.417V468.539Z" fill="#0159C1" fill-opacity="0.11"/>
<path d="M65.6628 468.539H73.125V475.795H65.6628V468.539Z" fill="#0159C1" fill-opacity="0.11"/>
<path d="M53.3151 468.539H60.7773V475.795H53.3151V468.539Z" fill="#0159C1" fill-opacity="0.11"/>
<path d="M40.9625 468.539H48.4258V475.795H40.9625V468.539Z" fill="#0159C1" fill-opacity="0.11"/>
<path d="M28.612 468.539H36.0742V475.795H28.612V468.539Z" fill="#0159C1" fill-opacity="0.11"/>
<path d="M3.91171 468.539H11.375V475.795H3.91171V468.539Z" fill="#0159C1" fill-opacity="0.11"/>
<path d="M164.463 456.525H171.926V463.781H164.463V456.525Z" fill="#0159C1" fill-opacity="0.11"/>
<path d="M102.714 456.525H110.176V463.781H102.714V456.525Z" fill="#0159C1" fill-opacity="0.11"/>
<path d="M90.3658 456.525H97.8281V463.781H90.3658V456.525Z" fill="#0159C1" fill-opacity="0.11"/>
<path d="M28.612 456.525H36.0742V463.781H28.612V456.525Z" fill="#0159C1" fill-opacity="0.11"/>
<path d="M16.2643 456.525H23.7266V463.781H16.2643V456.525Z" fill="#0159C1" fill-opacity="0.11"/>
<path d="M3.91171 456.525H11.375V463.781H3.91171V456.525Z" fill="#0159C1" fill-opacity="0.11"/>
<path d="M90.3658 444.514H97.8281V451.77H90.3658V444.514Z" fill="#0159C1" fill-opacity="0.11"/>
<path d="M78.0143 444.514H85.4766V451.77H78.0143V444.514Z" fill="#0159C1" fill-opacity="0.11"/>
<path d="M53.3151 444.514H60.7773V451.77H53.3151V444.514Z" fill="#0159C1" fill-opacity="0.11"/>
<path d="M40.9625 444.514H48.4258V451.77H40.9625V444.514Z" fill="#0159C1" fill-opacity="0.11"/>
<path d="M3.91171 444.514H11.375V451.77H3.91171V444.514Z" fill="#0159C1" fill-opacity="0.11"/>
<path d="M90.3658 432.498H97.8281V439.754H90.3658V432.498Z" fill="#0159C1" fill-opacity="0.11"/>
<path d="M78.0143 432.498H85.4766V439.754H78.0143V432.498Z" fill="#0159C1" fill-opacity="0.11"/>
<path d="M65.6628 432.498H73.125V439.754H65.6628V432.498Z" fill="#0159C1" fill-opacity="0.11"/>
<path d="M40.9625 432.498H48.4258V439.754H40.9625V432.498Z" fill="#0159C1" fill-opacity="0.11"/>
<path d="M28.612 432.498H36.0742V439.754H28.612V432.498Z" fill="#0159C1" fill-opacity="0.11"/>
<path d="M16.2643 336.387H23.7266V343.646H16.2643V336.387Z" fill="#0159C1" fill-opacity="0.11"/>
<path d="M78.0143 288.332H85.4766V295.591H78.0143V288.332Z" fill="#0159C1" fill-opacity="0.11"/>
<path d="M65.6628 288.332H73.125V295.591H65.6628V288.332Z" fill="#0159C1" fill-opacity="0.11"/>
<path d="M53.3151 288.332H60.7773V295.591H53.3151V288.332Z" fill="#0159C1" fill-opacity="0.11"/>
<path d="M28.612 288.332H36.0742V295.591H28.612V288.332Z" fill="#0159C1" fill-opacity="0.11"/>
<path d="M3.91171 288.332H11.375V295.591H3.91171V288.332Z" fill="#0159C1" fill-opacity="0.11"/>
<path d="M115.065 276.316H122.527V283.575H115.065V276.316Z" fill="#0159C1" fill-opacity="0.11"/>
<path d="M102.714 276.316H110.176V283.575H102.714V276.316Z" fill="#0159C1" fill-opacity="0.11"/>
<path d="M90.3658 276.316H97.8281V283.575H90.3658V276.316Z" fill="#0159C1" fill-opacity="0.11"/>
<path d="M78.0143 276.316H85.4766V283.575H78.0143V276.316Z" fill="#0159C1" fill-opacity="0.11"/>
<path d="M28.612 276.316H36.0742V283.575H28.612V276.316Z" fill="#0159C1" fill-opacity="0.11"/>
<path d="M16.2643 276.316H23.7266V283.575H16.2643V276.316Z" fill="#0159C1" fill-opacity="0.11"/>
<path d="M127.417 264.305H134.879V271.564H127.417V264.305Z" fill="#0159C1" fill-opacity="0.11"/>
<path d="M102.714 264.305H110.176V271.564H102.714V264.305Z" fill="#0159C1" fill-opacity="0.11"/>
<path d="M78.0143 264.305H85.4766V271.564H78.0143V264.305Z" fill="#0159C1" fill-opacity="0.11"/>
<path d="M65.6628 264.305H73.125V271.564H65.6628V264.305Z" fill="#0159C1" fill-opacity="0.11"/>
<path d="M53.3151 264.305H60.7773V271.564H53.3151V264.305Z" fill="#0159C1" fill-opacity="0.11"/>
<path d="M40.9625 264.305H48.4258V271.564H40.9625V264.305Z" fill="#0159C1" fill-opacity="0.11"/>
<path d="M28.612 264.305H36.0742V271.564H28.612V264.305Z" fill="#0159C1" fill-opacity="0.11"/>
<path d="M189.167 228.264H196.629V235.523H189.167V228.264Z" fill="#0159C1" fill-opacity="0.11"/>
<path d="M139.764 228.264H147.227V235.523H139.764V228.264Z" fill="#0159C1" fill-opacity="0.11"/>
<path d="M127.417 228.264H134.879V235.523H127.417V228.264Z" fill="#0159C1" fill-opacity="0.11"/>
<path d="M90.3658 228.264H97.8281V235.523H90.3658V228.264Z" fill="#0159C1" fill-opacity="0.11"/>
<path d="M53.3151 228.264H60.7773V235.523H53.3151V228.264Z" fill="#0159C1" fill-opacity="0.11"/>
<path d="M28.612 228.264H36.0742V235.523H28.612V228.264Z" fill="#0159C1" fill-opacity="0.11"/>
<path d="M16.2643 228.264H23.7266V235.523H16.2643V228.264Z" fill="#0159C1" fill-opacity="0.11"/>
<path d="M189.167 216.248H196.629V223.507H189.167V216.248Z" fill="#0159C1" fill-opacity="0.11"/>
<path d="M164.463 216.248H171.926V223.507H164.463V216.248Z" fill="#0159C1" fill-opacity="0.11"/>
<path d="M152.116 216.248H159.578V223.507H152.116V216.248Z" fill="#0159C1" fill-opacity="0.11"/>
<path d="M78.0143 216.248H85.4766V223.507H78.0143V216.248Z" fill="#0159C1" fill-opacity="0.11"/>
<path d="M16.2643 216.248H23.7266V223.507H16.2643V216.248Z" fill="#0159C1" fill-opacity="0.11"/>
<path d="M3.91171 216.248H11.375V223.507H3.91171V216.248Z" fill="#0159C1" fill-opacity="0.11"/>
<path d="M127.417 168.193H134.879V175.452H127.417V168.193Z" fill="#0159C1" fill-opacity="0.11"/>
<path d="M115.065 168.193H122.527V175.452H115.065V168.193Z" fill="#0159C1" fill-opacity="0.11"/>
<path d="M53.3151 168.193H60.7773V175.452H53.3151V168.193Z" fill="#0159C1" fill-opacity="0.11"/>
<path d="M40.9625 168.193H48.4258V175.452H40.9625V168.193Z" fill="#0159C1" fill-opacity="0.11"/>
<path d="M3.91171 168.193H11.375V175.452H3.91171V168.193Z" fill="#0159C1" fill-opacity="0.11"/>
<path d="M78.0143 156.18H85.4766V163.439H78.0143V156.18Z" fill="#0159C1" fill-opacity="0.11"/>
<path d="M65.6628 156.18H73.125V163.439H65.6628V156.18Z" fill="#0159C1" fill-opacity="0.11"/>
<path d="M28.612 156.18H36.0742V163.439H28.612V156.18Z" fill="#0159C1" fill-opacity="0.11"/>
<path d="M16.2643 156.18H23.7266V163.439H16.2643V156.18Z" fill="#0159C1" fill-opacity="0.11"/>
<path d="M40.9625 144.164H48.4258V151.424H40.9625V144.164Z" fill="#0159C1" fill-opacity="0.11"/>
<path d="M16.2643 144.164H23.7266V151.424H16.2643V144.164Z" fill="#0159C1" fill-opacity="0.11"/>
<path d="M3.91171 144.164H11.375V151.424H3.91171V144.164Z" fill="#0159C1" fill-opacity="0.11"/>
<path d="M40.9625 108.123H48.4258V115.383H40.9625V108.123Z" fill="#0159C1" fill-opacity="0.11"/>
<path d="M16.2643 108.123H23.7266V115.383H16.2643V108.123Z" fill="#0159C1" fill-opacity="0.11"/>
<path d="M3.91171 108.123H11.375V115.383H3.91171V108.123Z" fill="#0159C1" fill-opacity="0.11"/>
<path d="M176.815 96.1094H184.277V103.368H176.815V96.1094Z" fill="#0159C1" fill-opacity="0.11"/>
<path d="M152.116 96.1094H159.578V103.368H152.116V96.1094Z" fill="#0159C1" fill-opacity="0.11"/>
<path d="M139.764 96.1094H147.227V103.368H139.764V96.1094Z" fill="#0159C1" fill-opacity="0.11"/>
<path d="M115.065 96.1094H122.527V103.368H115.065V96.1094Z" fill="#0159C1" fill-opacity="0.11"/>
<path d="M65.6628 96.1094H73.125V103.368H65.6628V96.1094Z" fill="#0159C1" fill-opacity="0.11"/>
<path d="M3.91171 96.1094H11.375V103.368H3.91171V96.1094Z" fill="#0159C1" fill-opacity="0.11"/>
<path d="M16.2643 84.0977H23.7266V91.3577H16.2643V84.0977Z" fill="#0159C1" fill-opacity="0.11"/>
<path d="M3.91171 72.082H11.375V79.341H3.91171V72.082Z" fill="#0159C1" fill-opacity="0.11"/>
<path d="M102.714 60.0684H110.176V67.3274H102.714V60.0684Z" fill="#0159C1" fill-opacity="0.11"/>
<path d="M90.3658 60.0684H97.8281V67.3274H90.3658V60.0684Z" fill="#0159C1" fill-opacity="0.11"/>
<path d="M78.0143 60.0684H85.4766V67.3274H78.0143V60.0684Z" fill="#0159C1" fill-opacity="0.11"/>
<path d="M53.3151 60.0684H60.7773V67.3274H53.3151V60.0684Z" fill="#0159C1" fill-opacity="0.11"/>
<path d="M201.518 36.043H208.98V43.302H201.518V36.043Z" fill="#0159C1" fill-opacity="0.11"/>
<path d="M189.167 36.043H196.629V43.302H189.167V36.043Z" fill="#0159C1" fill-opacity="0.11"/>
<path d="M139.764 36.043H147.227V43.302H139.764V36.043Z" fill="#0159C1" fill-opacity="0.11"/>
<path d="M102.714 36.043H110.176V43.302H102.714V36.043Z" fill="#0159C1" fill-opacity="0.11"/>
<path d="M90.3658 36.043H97.8281V43.302H90.3658V36.043Z" fill="#0159C1" fill-opacity="0.11"/>
<path d="M78.0143 36.043H85.4766V43.302H78.0143V36.043Z" fill="#0159C1" fill-opacity="0.11"/>
<path d="M53.3151 36.043H60.7773V43.302H53.3151V36.043Z" fill="#0159C1" fill-opacity="0.11"/>
<path d="M40.9625 36.043H48.4258V43.302H40.9625V36.043Z" fill="#0159C1" fill-opacity="0.11"/>
<path d="M28.612 36.043H36.0742V43.302H28.612V36.043Z" fill="#0159C1" fill-opacity="0.11"/>
<path d="M3.91171 36.043H11.375V43.302H3.91171V36.043Z" fill="#0159C1" fill-opacity="0.11"/>
<path d="M127.417 24.0273H134.879V31.2863H127.417V24.0273Z" fill="#0159C1" fill-opacity="0.11"/>
<path d="M115.065 24.0273H122.527V31.2863H115.065V24.0273Z" fill="#0159C1" fill-opacity="0.11"/>
<path d="M90.3658 24.0273H97.8281V31.2863H90.3658V24.0273Z" fill="#0159C1" fill-opacity="0.11"/>
<path d="M65.6628 24.0273H73.125V31.2863H65.6628V24.0273Z" fill="#0159C1" fill-opacity="0.11"/>
<path d="M497.921 468.539H505.383V475.795H497.921V468.539Z" fill="#0159C1" fill-opacity="0.11"/>
<path d="M473.221 468.539H480.684V475.795H473.221V468.539Z" fill="#0159C1" fill-opacity="0.11"/>
<path d="M448.522 468.539H455.984V475.795H448.522V468.539Z" fill="#0159C1" fill-opacity="0.11"/>
<path d="M436.171 468.539H443.633V475.795H436.171V468.539Z" fill="#0159C1" fill-opacity="0.11"/>
<path d="M423.818 468.539H431.281V475.795H423.818V468.539Z" fill="#0159C1" fill-opacity="0.11"/>
<path d="M399.12 468.539H406.582V475.795H399.12V468.539Z" fill="#0159C1" fill-opacity="0.11"/>
<path d="M386.767 468.539H394.23V475.795H386.767V468.539Z" fill="#0159C1" fill-opacity="0.11"/>
<path d="M374.417 468.539H381.879V475.795H374.417V468.539Z" fill="#0159C1" fill-opacity="0.11"/>
<path d="M362.068 468.539H369.531V475.795H362.068V468.539Z" fill="#0159C1" fill-opacity="0.11"/>
<path d="M349.721 468.539H357.184V475.795H349.721V468.539Z" fill="#0159C1" fill-opacity="0.11"/>
<path d="M325.017 468.539H332.48V475.795H325.017V468.539Z" fill="#0159C1" fill-opacity="0.11"/>
<path d="M312.667 468.539H320.129V475.795H312.667V468.539Z" fill="#0159C1" fill-opacity="0.11"/>
<path d="M300.319 468.539H307.781V475.795H300.319V468.539Z" fill="#0159C1" fill-opacity="0.11"/>
<path d="M263.267 468.539H270.73V475.795H263.267V468.539Z" fill="#0159C1" fill-opacity="0.11"/>
<path d="M226.214 468.539H233.676V475.795H226.214V468.539Z" fill="#0159C1" fill-opacity="0.11"/>
<path d="M213.866 468.539H221.328V475.795H213.866V468.539Z" fill="#0159C1" fill-opacity="0.11"/>
<path d="M423.818 564.65H431.281V571.907H423.818V564.65Z" fill="#0159C1" fill-opacity="0.11"/>
<path d="M399.12 564.65H406.582V571.907H399.12V564.65Z" fill="#0159C1" fill-opacity="0.11"/>
<path d="M386.767 564.65H394.23V571.907H386.767V564.65Z" fill="#0159C1" fill-opacity="0.11"/>
<path d="M362.068 564.65H369.531V571.907H362.068V564.65Z" fill="#0159C1" fill-opacity="0.11"/>
<path d="M349.721 564.65H357.184V571.907H349.721V564.65Z" fill="#0159C1" fill-opacity="0.11"/>
<path d="M337.37 564.65H344.832V571.907H337.37V564.65Z" fill="#0159C1" fill-opacity="0.11"/>
<path d="M325.017 564.65H332.48V571.907H325.017V564.65Z" fill="#0159C1" fill-opacity="0.11"/>
<path d="M300.319 564.65H307.781V571.907H300.319V564.65Z" fill="#0159C1" fill-opacity="0.11"/>
<path d="M263.267 564.65H270.73V571.907H263.267V564.65Z" fill="#0159C1" fill-opacity="0.11"/>
<path d="M238.569 564.65H246.031V571.907H238.569V564.65Z" fill="#0159C1" fill-opacity="0.11"/>
<path d="M213.866 564.65H221.328V571.907H213.866V564.65Z" fill="#0159C1" fill-opacity="0.11"/>
<path d="M201.518 564.65H208.98V571.907H201.518V564.65Z" fill="#0159C1" fill-opacity="0.11"/>
<path d="M189.167 564.65H196.629V571.907H189.167V564.65Z" fill="#0159C1" fill-opacity="0.11"/>
<path d="M176.815 564.65H184.277V571.907H176.815V564.65Z" fill="#0159C1" fill-opacity="0.11"/>
<path d="M152.116 564.65H159.578V571.907H152.116V564.65Z" fill="#0159C1" fill-opacity="0.11"/>
<path d="M201.518 901.037H208.98V908.293H201.518V901.037Z" fill="#0159C1" fill-opacity="0.11"/>
<path d="M497.921 901.037H505.383V908.293H497.921V901.037Z" fill="#0159C1" fill-opacity="0.11"/>
<path d="M473.221 901.037H480.684V908.293H473.221V901.037Z" fill="#0159C1" fill-opacity="0.11"/>
<path d="M423.818 901.037H431.281V908.293H423.818V901.037Z" fill="#0159C1" fill-opacity="0.11"/>
<path d="M411.467 901.037H418.93V908.293H411.467V901.037Z" fill="#0159C1" fill-opacity="0.11"/>
<path d="M399.12 901.037H406.582V908.293H399.12V901.037Z" fill="#0159C1" fill-opacity="0.11"/>
<path d="M386.767 901.037H394.23V908.293H386.767V901.037Z" fill="#0159C1" fill-opacity="0.11"/>
<path d="M362.068 901.037H369.531V908.293H362.068V901.037Z" fill="#0159C1" fill-opacity="0.11"/>
<path d="M349.721 901.037H357.184V908.293H349.721V901.037Z" fill="#0159C1" fill-opacity="0.11"/>
<path d="M337.37 901.037H344.832V908.293H337.37V901.037Z" fill="#0159C1" fill-opacity="0.11"/>
<path d="M325.017 901.037H332.48V908.293H325.017V901.037Z" fill="#0159C1" fill-opacity="0.11"/>
<path d="M312.667 901.037H320.129V908.293H312.667V901.037Z" fill="#0159C1" fill-opacity="0.11"/>
<path d="M300.319 901.037H307.781V908.293H300.319V901.037Z" fill="#0159C1" fill-opacity="0.11"/>
<path d="M287.967 901.037H295.43V908.293H287.967V901.037Z" fill="#0159C1" fill-opacity="0.11"/>
<path d="M275.616 901.037H283.078V908.293H275.616V901.037Z" fill="#0159C1" fill-opacity="0.11"/>
<path d="M250.917 901.037H258.379V908.293H250.917V901.037Z" fill="#0159C1" fill-opacity="0.11"/>
<path d="M238.569 901.037H246.031V908.293H238.569V901.037Z" fill="#0159C1" fill-opacity="0.11"/>
<path d="M226.214 901.037H233.676V908.293H226.214V901.037Z" fill="#0159C1" fill-opacity="0.11"/>
<path d="M263.267 913.051H270.73V920.308H263.267V913.051Z" fill="#0159C1" fill-opacity="0.11"/>
<path d="M250.917 913.051H258.379V920.308H250.917V913.051Z" fill="#0159C1" fill-opacity="0.11"/>
<path d="M226.214 913.051H233.676V920.308H226.214V913.051Z" fill="#0159C1" fill-opacity="0.11"/>
<path d="M213.866 913.051H221.328V920.308H213.866V913.051Z" fill="#0159C1" fill-opacity="0.11"/>
<path d="M201.518 913.051H208.98V920.308H201.518V913.051Z" fill="#0159C1" fill-opacity="0.11"/>
<path d="M176.815 913.051H184.277V920.308H176.815V913.051Z" fill="#0159C1" fill-opacity="0.11"/>
<path d="M164.463 913.051H171.926V920.308H164.463V913.051Z" fill="#0159C1" fill-opacity="0.11"/>
<path d="M152.116 913.051H159.578V920.308H152.116V913.051Z" fill="#0159C1" fill-opacity="0.11"/>
<path d="M139.764 913.051H147.227V920.308H139.764V913.051Z" fill="#0159C1" fill-opacity="0.11"/>
<path d="M127.417 913.051H134.879V920.308H127.417V913.051Z" fill="#0159C1" fill-opacity="0.11"/>
<path d="M102.714 913.051H110.176V920.308H102.714V913.051Z" fill="#0159C1" fill-opacity="0.11"/>
<path d="M90.3658 913.051H97.8281V920.308H90.3658V913.051Z" fill="#0159C1" fill-opacity="0.11"/>
<path d="M78.0143 913.051H85.4766V920.308H78.0143V913.051Z" fill="#0159C1" fill-opacity="0.11"/>
<path d="M65.6628 913.051H73.125V920.308H65.6628V913.051Z" fill="#0159C1" fill-opacity="0.11"/>
<path d="M40.9625 913.051H48.4258V920.308H40.9625V913.051Z" fill="#0159C1" fill-opacity="0.11"/>
<path d="M28.612 913.051H36.0742V920.308H28.612V913.051Z" fill="#0159C1" fill-opacity="0.11"/>
<path d="M3.91171 913.051H11.375V920.308H3.91171V913.051Z" fill="#0159C1" fill-opacity="0.11"/>
<path d="M423.818 456.525H431.281V463.781H423.818V456.525Z" fill="#0159C1" fill-opacity="0.11"/>
<path d="M411.467 456.525H418.93V463.781H411.467V456.525Z" fill="#0159C1" fill-opacity="0.11"/>
<path d="M386.767 456.525H394.23V463.781H386.767V456.525Z" fill="#0159C1" fill-opacity="0.11"/>
<path d="M349.721 456.525H357.184V463.781H349.721V456.525Z" fill="#0159C1" fill-opacity="0.11"/>
<path d="M337.37 456.525H344.832V463.781H337.37V456.525Z" fill="#0159C1" fill-opacity="0.11"/>
<path d="M325.017 456.525H332.48V463.781H325.017V456.525Z" fill="#0159C1" fill-opacity="0.11"/>
<path d="M300.319 456.525H307.781V463.781H300.319V456.525Z" fill="#0159C1" fill-opacity="0.11"/>
<path d="M287.967 456.525H295.43V463.781H287.967V456.525Z" fill="#0159C1" fill-opacity="0.11"/>
<path d="M275.616 456.525H283.078V463.781H275.616V456.525Z" fill="#0159C1" fill-opacity="0.11"/>
<path d="M263.267 456.525H270.73V463.781H263.267V456.525Z" fill="#0159C1" fill-opacity="0.11"/>
<path d="M238.569 456.525H246.031V463.781H238.569V456.525Z" fill="#0159C1" fill-opacity="0.11"/>
<path d="M226.214 456.525H233.676V463.781H226.214V456.525Z" fill="#0159C1" fill-opacity="0.11"/>
<path d="M201.518 456.525H208.98V463.781H201.518V456.525Z" fill="#0159C1" fill-opacity="0.11"/>
<path d="M189.167 456.525H196.629V463.781H189.167V456.525Z" fill="#0159C1" fill-opacity="0.11"/>
<path d="M176.815 456.525H184.277V463.781H176.815V456.525Z" fill="#0159C1" fill-opacity="0.11"/>
</svg>
